<svg width="197" height="41" viewBox="0 0 197 41" fill="none" xmlns="http://www.w3.org/2000/svg">
<path d="M3.22128 24.766L3.44528 26.39H3.45928L3.69728 24.738L5.71328 18.2H6.27328L8.30328 24.766L8.54128 26.39H8.55528L8.80728 24.738L10.4593 18.2H11.5933L8.86328 28.154H8.21928L6.23128 21.588L5.97928 20.104H5.90928L5.65728 21.602L3.66928 28.154H3.02528L0.225281 18.2H1.45728L3.22128 24.766ZM12.897 18.2H18.231V19.236H14.059V22.442H17.881V23.478H14.059V26.964H18.301V28H12.897V18.2ZM26.3109 20.44C26.3109 20.6733 26.2736 20.9113 26.1989 21.154C26.1242 21.3967 26.0122 21.6253 25.8629 21.84C25.7136 22.0453 25.5222 22.2273 25.2889 22.386C25.0556 22.5447 24.7802 22.666 24.4629 22.75V22.806C24.7429 22.8527 25.0089 22.932 25.2609 23.044C25.5222 23.156 25.7509 23.31 25.9469 23.506C26.1429 23.702 26.3016 23.94 26.4229 24.22C26.5442 24.5 26.6049 24.8313 26.6049 25.214C26.6049 25.718 26.4976 26.1567 26.2829 26.53C26.0776 26.894 25.8022 27.1927 25.4569 27.426C25.1209 27.6593 24.7336 27.832 24.2949 27.944C23.8562 28.056 23.4082 28.112 22.9509 28.112C22.7922 28.112 22.6056 28.112 22.3909 28.112C22.1762 28.112 21.9522 28.1027 21.7189 28.084C21.4856 28.0747 21.2522 28.056 21.0189 28.028C20.7856 28.0093 20.5802 27.9767 20.4029 27.93V18.284C20.7482 18.228 21.1496 18.1813 21.6069 18.144C22.0642 18.1067 22.5636 18.088 23.1049 18.088C23.4689 18.088 23.8376 18.1207 24.2109 18.186C24.5936 18.242 24.9389 18.3587 25.2469 18.536C25.5549 18.704 25.8069 18.942 26.0029 19.25C26.2082 19.558 26.3109 19.9547 26.3109 20.44ZM23.0629 27.104C23.3616 27.104 23.6509 27.0713 23.9309 27.006C24.2109 26.9313 24.4582 26.8193 24.6729 26.67C24.8876 26.5113 25.0556 26.32 25.1769 26.096C25.3076 25.872 25.3729 25.606 25.3729 25.298C25.3729 24.9153 25.2936 24.6073 25.1349 24.374C24.9856 24.1407 24.7849 23.9587 24.5329 23.828C24.2902 23.6973 24.0149 23.6087 23.7069 23.562C23.3989 23.5153 23.0909 23.492 22.7829 23.492H21.5649V27.006C21.6302 27.0247 21.7236 27.0387 21.8449 27.048C21.9662 27.0573 22.0969 27.0667 22.2369 27.076C22.3769 27.0853 22.5216 27.0947 22.6709 27.104C22.8202 27.104 22.9509 27.104 23.0629 27.104ZM22.2929 22.512C22.4516 22.512 22.6429 22.5073 22.8669 22.498C23.0909 22.4887 23.2776 22.4747 23.4269 22.456C23.6509 22.3813 23.8609 22.2927 24.0569 22.19C24.2529 22.078 24.4256 21.952 24.5749 21.812C24.7336 21.6627 24.8549 21.4947 24.9389 21.308C25.0322 21.112 25.0789 20.902 25.0789 20.678C25.0789 20.37 25.0182 20.118 24.8969 19.922C24.7849 19.7167 24.6309 19.5533 24.4349 19.432C24.2389 19.3107 24.0149 19.2267 23.7629 19.18C23.5109 19.124 23.2542 19.096 22.9929 19.096C22.6849 19.096 22.4002 19.1053 22.1389 19.124C21.8869 19.1333 21.6956 19.152 21.5649 19.18V22.512H22.2929ZM33.0027 25.508C33.0027 25.116 32.886 24.7987 32.6527 24.556C32.4193 24.304 32.1253 24.0847 31.7707 23.898C31.4253 23.702 31.0473 23.52 30.6367 23.352C30.226 23.184 29.8433 22.9833 29.4887 22.75C29.1433 22.5073 28.854 22.2133 28.6207 21.868C28.3873 21.5133 28.2707 21.0653 28.2707 20.524C28.2707 19.7587 28.5367 19.152 29.0687 18.704C29.6007 18.256 30.3567 18.032 31.3367 18.032C31.906 18.032 32.424 18.074 32.8907 18.158C33.3573 18.242 33.7213 18.3493 33.9827 18.48L33.6327 19.502C33.418 19.3993 33.1007 19.3013 32.6807 19.208C32.27 19.1147 31.8033 19.068 31.2807 19.068C30.6647 19.068 30.2027 19.208 29.8947 19.488C29.5867 19.7587 29.4327 20.0807 29.4327 20.454C29.4327 20.818 29.5493 21.1213 29.7827 21.364C30.016 21.6067 30.3053 21.826 30.6507 22.022C31.0053 22.2087 31.388 22.3953 31.7987 22.582C32.2093 22.7687 32.5873 22.988 32.9327 23.24C33.2873 23.4827 33.5813 23.7767 33.8147 24.122C34.048 24.4673 34.1647 24.8967 34.1647 25.41C34.1647 25.83 34.09 26.208 33.9407 26.544C33.7913 26.88 33.572 27.1693 33.2827 27.412C32.9933 27.6547 32.6433 27.8413 32.2327 27.972C31.822 28.1027 31.3553 28.168 30.8327 28.168C30.1327 28.168 29.554 28.112 29.0967 28C28.6393 27.8973 28.2847 27.7807 28.0327 27.65L28.4247 26.6C28.6393 26.7213 28.9567 26.8427 29.3767 26.964C29.7967 27.076 30.268 27.132 30.7907 27.132C31.0987 27.132 31.388 27.104 31.6587 27.048C31.9293 26.9827 32.1627 26.8847 32.3587 26.754C32.5547 26.614 32.7087 26.4413 32.8207 26.236C32.942 26.0307 33.0027 25.788 33.0027 25.508ZM36.2822 18.2H37.4442V28H36.2822V18.2ZM46.4184 19.236H43.3664V28H42.2044V19.236H39.1524V18.2H46.4184V19.236ZM47.856 18.2H53.19V19.236H49.018V22.442H52.84V23.478H49.018V26.964H53.26V28H47.856V18.2ZM65.0023 20.44C65.0023 20.6733 64.965 20.9113 64.8903 21.154C64.8156 21.3967 64.7036 21.6253 64.5543 21.84C64.405 22.0453 64.2136 22.2273 63.9803 22.386C63.747 22.5447 63.4716 22.666 63.1543 22.75V22.806C63.4343 22.8527 63.7003 22.932 63.9523 23.044C64.2136 23.156 64.4423 23.31 64.6383 23.506C64.8343 23.702 64.993 23.94 65.1143 24.22C65.2356 24.5 65.2963 24.8313 65.2963 25.214C65.2963 25.718 65.189 26.1567 64.9743 26.53C64.769 26.894 64.4936 27.1927 64.1483 27.426C63.8123 27.6593 63.425 27.832 62.9863 27.944C62.5476 28.056 62.0996 28.112 61.6423 28.112C61.4836 28.112 61.297 28.112 61.0823 28.112C60.8676 28.112 60.6436 28.1027 60.4103 28.084C60.177 28.0747 59.9436 28.056 59.7103 28.028C59.477 28.0093 59.2716 27.9767 59.0943 27.93V18.284C59.4396 18.228 59.841 18.1813 60.2983 18.144C60.7556 18.1067 61.255 18.088 61.7963 18.088C62.1603 18.088 62.529 18.1207 62.9023 18.186C63.285 18.242 63.6303 18.3587 63.9383 18.536C64.2463 18.704 64.4983 18.942 64.6943 19.25C64.8996 19.558 65.0023 19.9547 65.0023 20.44ZM61.7543 27.104C62.053 27.104 62.3423 27.0713 62.6223 27.006C62.9023 26.9313 63.1496 26.8193 63.3643 26.67C63.579 26.5113 63.747 26.32 63.8683 26.096C63.999 25.872 64.0643 25.606 64.0643 25.298C64.0643 24.9153 63.985 24.6073 63.8263 24.374C63.677 24.1407 63.4763 23.9587 63.2243 23.828C62.9816 23.6973 62.7063 23.6087 62.3983 23.562C62.0903 23.5153 61.7823 23.492 61.4743 23.492H60.2563V27.006C60.3216 27.0247 60.415 27.0387 60.5363 27.048C60.6576 27.0573 60.7883 27.0667 60.9283 27.076C61.0683 27.0853 61.213 27.0947 61.3623 27.104C61.5116 27.104 61.6423 27.104 61.7543 27.104ZM60.9843 22.512C61.143 22.512 61.3343 22.5073 61.5583 22.498C61.7823 22.4887 61.969 22.4747 62.1183 22.456C62.3423 22.3813 62.5523 22.2927 62.7483 22.19C62.9443 22.078 63.117 21.952 63.2663 21.812C63.425 21.6627 63.5463 21.4947 63.6303 21.308C63.7236 21.112 63.7703 20.902 63.7703 20.678C63.7703 20.37 63.7096 20.118 63.5883 19.922C63.4763 19.7167 63.3223 19.5533 63.1263 19.432C62.9303 19.3107 62.7063 19.2267 62.4543 19.18C62.2023 19.124 61.9456 19.096 61.6843 19.096C61.3763 19.096 61.0916 19.1053 60.8303 19.124C60.5783 19.1333 60.387 19.152 60.2563 19.18V22.512H60.9843ZM69.4261 24.108L66.1921 18.2H67.5501L69.8461 22.484L70.0841 23.338H70.0981L70.3501 22.456L72.5481 18.2H73.7941L70.5881 24.094V28H69.4261V24.108Z" fill="black"/>
<path fill-rule="evenodd" clip-rule="evenodd" d="M97.5197 1.05737H97.3509L82 2.71895V31.4945L97.3509 40.8382L112.702 31.4945V2.71895L97.5197 1.05737ZM159.018 2.62185H157.088V15.7311H159.018V2.62185ZM122.862 2.63264V7.76843C123.613 6.9864 124.639 6.5436 125.711 6.53843C126.682 6.47908 127.633 6.84495 128.325 7.54479C129.018 8.24462 129.387 9.21244 129.34 10.2068V15.7634H127.367V10.4658C127.423 9.94897 127.275 9.43059 126.957 9.02553C126.638 8.62047 126.174 8.36218 125.668 8.3079H125.352C124.346 8.36979 123.432 8.9295 122.904 9.80764V15.7634H120.9V2.63264H122.862ZM159.018 31.4837H157.278V30.0595C156.483 31.1353 155.23 31.7538 153.912 31.7211C151.475 31.5528 149.583 29.4822 149.583 26.9845C149.583 24.4867 151.475 22.4162 153.912 22.2479C155.119 22.2052 156.282 22.7203 157.077 23.6505V18.3205H159.018V31.4837ZM129.066 30.0595C129.263 30.0515 129.458 30.0152 129.646 29.9516V31.3866C129.248 31.5404 128.826 31.6172 128.401 31.6132C127.648 31.6769 126.939 31.2429 126.639 30.5342C125.704 31.31 124.53 31.7227 123.326 31.6995C121.733 31.6995 120.256 30.804 120.256 28.9482C120.256 26.65 122.366 25.9379 124.17 25.9379C124.94 25.9505 125.707 26.0408 126.46 26.2076V25.884C126.46 24.805 125.658 23.9742 124.149 23.9742C123.059 23.9764 121.98 24.2116 120.984 24.6647V22.8305C122.068 22.451 123.204 22.2506 124.35 22.2371C126.839 22.2371 128.369 23.4455 128.369 26.1753V29.4121C128.355 29.5668 128.401 29.721 128.498 29.8406C128.595 29.9601 128.735 30.035 128.886 30.0487H129.066V30.0595ZM122.271 28.8403C122.298 29.229 122.476 29.5905 122.766 29.844C123.055 30.0974 123.432 30.2217 123.811 30.189H123.928C124.882 30.1906 125.797 29.8022 126.47 29.11V27.5779C125.842 27.4414 125.203 27.3655 124.561 27.3513C123.506 27.3513 122.282 27.7074 122.282 28.8403H122.271ZM138.023 22.9384C137.196 22.4632 136.26 22.2246 135.311 22.2479H134.942C133.733 22.2873 132.589 22.8166 131.762 23.7192C130.935 24.6218 130.492 25.8236 130.532 27.06V27.5024C130.696 30.0004 132.805 31.8921 135.248 31.7318C136.252 31.7555 137.248 31.5452 138.16 31.1168V29.2718C137.377 29.7215 136.494 29.9591 135.596 29.9624C134.52 30.0288 133.496 29.4793 132.938 28.5356C132.381 27.5918 132.381 26.4095 132.938 25.4658C133.496 24.522 134.52 23.9725 135.596 24.039C136.461 24.0357 137.307 24.2989 138.023 24.7942V22.9384ZM148.151 30.0595C148.349 30.0515 148.544 30.0152 148.732 29.9516V31.3866C148.334 31.5404 147.912 31.6172 147.487 31.6132C146.734 31.6769 146.025 31.2429 145.725 30.5342C144.789 31.31 143.616 31.7227 142.412 31.6995C140.819 31.6995 139.342 30.804 139.342 28.9482C139.342 26.65 141.452 25.9379 143.256 25.9379C144.026 25.9505 144.793 26.0408 145.545 26.2076V25.884C145.545 24.805 144.744 23.9742 143.235 23.9742C142.144 23.9764 141.066 24.2116 140.07 24.6647V22.8305C141.154 22.451 142.29 22.2506 143.435 22.2371C145.925 22.2371 147.455 23.4455 147.455 26.1753V29.4121C147.44 29.5668 147.487 29.721 147.584 29.8406C147.681 29.9601 147.821 30.035 147.972 30.0487H148.151V30.0595ZM141.855 29.8481C141.563 29.5943 141.384 29.2311 141.357 28.8403H141.378C141.378 27.7074 142.539 27.3513 143.657 27.3513C144.299 27.3655 144.938 27.4414 145.567 27.5779V29.11C144.894 29.8022 143.978 30.1906 143.024 30.189H142.908C142.526 30.2247 142.147 30.1019 141.855 29.8481ZM151.327 26.9305C151.327 25.2859 152.631 23.9526 154.239 23.9526L154.26 24.0066C155.474 24.0066 156.574 24.7382 157.067 25.8732V28.0311C156.586 29.1871 155.467 29.9296 154.239 29.9084C152.631 29.9084 151.327 28.5752 151.327 26.9305ZM165.349 22.2479C168.841 22.2479 170.054 25.1395 169.484 27.7397H162.922C163.144 29.3582 164.684 30.0163 166.288 30.0163C167.251 30.0196 168.203 29.8021 169.073 29.3797V31.1061C168.074 31.5421 166.994 31.7519 165.908 31.7211C163.239 31.7211 160.896 30.189 160.896 26.9521C160.836 25.7502 161.248 24.5736 162.041 23.6841C162.833 22.7945 163.941 22.2658 165.117 22.2155H165.349V22.2479ZM162.869 26.1753C162.97 24.8237 164.122 23.8104 165.444 23.9095H165.486C166.106 23.8531 166.72 24.08 167.161 24.5295C167.603 24.979 167.828 25.6051 167.775 26.24H162.869V26.1753ZM171.489 31.4621V22.4961H173.23V23.575C173.978 22.7197 175.041 22.2229 176.163 22.2047C177.295 22.1328 178.371 22.7163 178.948 23.7153C179.741 22.8335 180.848 22.3161 182.018 22.2803C182.952 22.2327 183.859 22.6011 184.507 23.2901C185.154 23.9792 185.478 24.9213 185.394 25.8732V31.4837H183.39V25.9271C183.437 25.4734 183.306 25.0191 183.024 24.6647C182.743 24.3104 182.336 24.0852 181.892 24.039H181.617C180.751 24.0941 179.953 24.536 179.433 25.2474V31.4837H177.429V25.9271C177.473 25.47 177.336 25.0139 177.048 24.6611C176.761 24.3082 176.347 24.088 175.899 24.0497H175.688C174.747 24.1344 173.891 24.6449 173.356 25.4416V31.5161H171.531L171.489 31.4621ZM195.977 22.4745H193.972L191.324 29.2718L188.306 22.4853H186.196L190.417 31.5484L190.237 32.0016C189.72 33.3611 189.003 34.0516 188.053 34.0516C187.75 34.0548 187.447 34.0112 187.156 33.9221V35.6161C187.536 35.7125 187.926 35.7632 188.317 35.7671C189.646 35.7671 190.902 35.0226 191.851 32.6813L195.977 22.4745ZM134.689 6.78658V3.54974L132.727 4.01369V6.73264H131.144V8.49132H132.79V12.9905C132.723 13.817 133.024 14.6301 133.61 15.2038C134.195 15.7775 135.003 16.0505 135.807 15.9468C136.6 15.9535 137.387 15.8259 138.139 15.5692V13.8429C137.573 14.0781 136.967 14.199 136.356 14.199C135.217 14.199 134.689 13.8105 134.689 12.6237V8.5129H137.854V6.78658H134.689ZM140.386 15.7526V6.75421H142.138V7.83316C142.881 6.97655 143.94 6.476 145.06 6.45211C146.162 6.38099 147.215 6.93142 147.803 7.88711C148.596 7.00534 149.703 6.48794 150.873 6.45211C151.814 6.41462 152.723 6.79859 153.364 7.50353C154.005 8.20846 154.313 9.16418 154.207 10.1205V15.7418H152.203V10.1853C152.25 9.73151 152.118 9.27721 151.837 8.92287C151.556 8.56853 151.149 8.34334 150.705 8.29711H150.462C149.596 8.35228 148.797 8.7942 148.278 9.50553V15.7418H146.273V10.1853C146.321 9.73151 146.189 9.27721 145.908 8.92287C145.627 8.56853 145.219 8.34334 144.775 8.29711H144.533C143.591 8.38181 142.736 8.89229 142.201 9.68895V15.7634H140.386V15.7526ZM110.697 30.3033L110.708 30.2968L110.697 30.3184V30.3033ZM110.697 18.3205V30.3033L97.3509 38.4321L84.0046 30.3184V18.5147L97.2876 26.6068V28.0311L88.1826 22.5284V23.9418L97.3404 29.5632V31.0629L88.1931 25.4955V26.9521L97.3509 32.5734L106.583 26.9197V20.8129L110.697 18.3205ZM110.708 16.7776L107.036 18.9355L105.348 20.0145L97.3087 15.0837V16.4971L104.156 20.7266L104.008 20.8237L102.953 21.4063L97.2876 17.9537V19.3995L101.761 22.1184L100.706 22.8413L97.3298 20.7913V22.2047L99.5454 23.5426L97.2982 24.9021L84.1101 16.864L97.3087 8.72869L110.708 16.7776ZM97.2876 7.27211L110.708 15.3534V4.56395L97.3615 3.12895L84.0151 4.56395V15.3534L97.2876 7.27211Z" fill="#231F20"/>
</svg>
